HIERARCHY
ROOT Hips
{
  OFFSET -4.62847 97.2586 358.142
  CHANNELS 6 Xposition Yposition Zposition Zrotation Xrotation Yrotation
  JOINT ToSpine
  {
    OFFSET -0.0105055 1.38907 -7.13956
    CHANNELS 3 Zrotation Xrotation Yrotation
    JOINT Spine
    {
      OFFSET 0.0105055 10 1
      CHANNELS 3 Zrotation Xrotation Yrotation
      JOINT Spine1
      {
        OFFSET 0 12 1.60637
        CHANNELS 3 Zrotation Xrotation Yrotation
        JOINT Neck
        {
          OFFSET 0 27 2.26658
          CHANNELS 3 Zrotation Xrotation Yrotation
          JOINT Head
          {
            OFFSET 0 9 2.12705
            CHANNELS 3 Zrotation Xrotation Yrotation
            End Site
            {
              OFFSET 0 11 2
            }
          }
        }
        JOINT LeftShoulder
        {
          OFFSET 8 19.6109 2.86452
          CHANNELS 3 Zrotation Xrotation Yrotation
          JOINT LeftArm
          {
            OFFSET 12 1 0.681055
            CHANNELS 3 Zrotation Xrotation Yrotation
            JOINT LeftForeArm
            {
              OFFSET 19 0 -1.52608
              CHANNELS 3 Zrotation Xrotation Yrotation
              JOINT LeftHand
              {
                OFFSET 23 0 0
                CHANNELS 3 Zrotation Xrotation Yrotation
                End Site
                {
                  OFFSET 10 0 0
                }
              }
            }
          }
        }
        JOINT RightShoulder
        {
          OFFSET -8 19.6109 2.86452
          CHANNELS 3 Zrotation Xrotation Yrotation
          JOINT RightArm
          {
            OFFSET -12 1 0.681055
            CHANNELS 3 Zrotation Xrotation Yrotation
            JOINT RightForeArm
            {
              OFFSET -19 0 -1.52608
              CHANNELS 3 Zrotation Xrotation Yrotation
              JOINT RightHand
              {
                OFFSET -23 0 0
                CHANNELS 3 Zrotation Xrotation Yrotation
                End Site
                {
                  OFFSET -10 0 0
                }
              }
            }
          }
        }
      }
    }
  }
  JOINT LeftUpLeg
  {
    OFFSET 9 -7.17245 0
    CHANNELS 3 Zrotation Xrotation Yrotation
    JOINT LeftLeg
    {
      OFFSET 0 -44.1113 0
      CHANNELS 3 Zrotation Xrotation Yrotation
      JOINT LeftFoot
      {
        OFFSET 0 -36.1829 0
        CHANNELS 3 Zrotation Xrotation Yrotation
        JOINT LeftToeBase
        {
          OFFSET 0 -4.84184 13
          CHANNELS 3 Zrotation Xrotation Yrotation
          End Site
          {
            OFFSET 0 1 6
          }
        }
      }
    }
  }
  JOINT RightUpLeg
  {
    OFFSET -9 -7.17245 0
    CHANNELS 3 Zrotation Xrotation Yrotation
    JOINT RightLeg
    {
      OFFSET 0 -44.0551 0
      CHANNELS 3 Zrotation Xrotation Yrotation
      JOINT RightFoot
      {
        OFFSET 0 -36.1469 0
        CHANNELS 3 Zrotation Xrotation Yrotation
        JOINT RightToeBase
        {
          OFFSET 0 -4.92256 13
          CHANNELS 3 Zrotation Xrotation Yrotation
          End Site
          {
            OFFSET 0 1 6
          }
        }
      }
    }
  }
}
MOTION
Frames:	12
Frame Time:	0.0333333
-9.70776 94.9032 149.595 -0.794572 -8.91067 4.82257 0 0 0 -4.03086 6.39251 -1.63217 7.56963 2.68729 -3.43425 11.431 25.0876 -3.69621 -5.01644 5.03555 3.34474 -27.8874 3.74601 -7.48756 -34.4543 19.9887 -25.3986 -4.68978 -12.8741 -2.62216 -10.0821 0.345953 -3.92133 26.7798 5.20656 12.2249 50.1084 2.66515 -10.1059 2.41232 -7.23096 16.8909 3.54361 0.140966 4.55571 5.042 14.002 14.8026 -0.136375 30.5952 -25.8621 14.063 -21.9993 2.74045 1.28249 -10.9924 -3.8394 2.52037 -12.2331 -3.77156 1.94481 11.8578 -2.05917 -9.97041 11.0253 0.984366 3.05408 -10.9782 -3.43832 
-9.2829 94.378 146.2 1.47918 -8.92273 3.75111 0 0 0 -5.78646 8.15721 -0.820577 6.2937 1.56895 -2.41043 11.8262 24.2437 -3.7577 -4.87816 4.92832 3.36142 -28.0504 3.75378 -7.45928 -33.2613 20.4262 -25.4311 -4.88019 -12.9591 -2.27235 -9.9024 0.329976 -3.80745 27.3775 5.38766 12.4902 49.221 3.44149 -8.90811 2.07945 -6.05003 18.2433 3.51257 0.151057 4.92247 1.2592 13.3513 15.6075 -0.881743 29.0986 -24.0431 17.974 -23.5489 3.77392 0.594682 -8.39735 -0.240066 -0.0317429 -13.5448 -4.67685 1.97936 10.1519 -1.27945 -13.49 13.8716 1.6391 4.37582 -16.8681 -6.33538 
-8.9834 93.8899 142.877 3.42579 -8.73555 2.78301 0 0 0 -7.36432 9.48529 -0.0148851 5.14915 0.689842 -1.41629 11.7171 23.5318 -3.76161 -4.57508 4.96882 3.15543 -28.002 3.78437 -7.56327 -32.7846 20.4609 -24.8938 -4.89306 -12.71 -2.26944 -9.75864 0.290454 -3.40537 27.6343 5.3593 12.2899 48.3305 5.11161 -6.86123 1.9555 -5.44512 18.1415 3.47643 0.145356 4.79193 -1.43296 10.9541 15.566 -1.54564 30.0351 -22.4349 19.2688 -25.303 4.36117 0.191367 -5.06764 0.66572 -2.3407 -15.0826 -5.69927 2.24086 9.50557 -3.2294 -15.9663 11.5824 1.62723 4.99485 -19.5197 -5.98206 
-8.54041 93.8107 139.859 4.35175 -8.98743 1.80681 0 0 0 -7.02386 10.2984 0.417231 3.33518 0.574046 -0.610929 10.9691 23.632 -3.40905 -4.47006 4.34918 3.10476 -27.8322 3.73879 -7.48411 -32.9996 20.7231 -23.721 -4.90509 -13.0609 -2.49585 -9.39568 0.297873 -3.62631 27.0389 5.36527 12.5769 48.0689 6.06071 -5.05417 1.97533 -5.25329 16.9835 3.41287 0.161265 5.40684 -3.03232 8.89266 14.4762 -2.24915 30.7747 -20.2933 18.826 -26.1923 4.41732 0.4303 -2.57893 -1.20178 -3.7443 -15.7923 -6.6269 2.34539 9.3292 -7.81427 -16.2743 7.42932 1.06696 4.53915 -17.1178 -2.80641 
-7.95265 94.414 136.921 4.43543 -9.85158 0.45978 0 0 0 -4.98522 11.2901 0.727078 0.844015 1.01447 0.247906 10.2937 24.4721 -3.12412 -4.16317 3.85673 3.03602 -28.3782 3.73639 -7.30798 -32.9317 21.0603 -21.4535 -4.78403 -13.389 -3.29927 -9.74711 0.283502 -3.32427 27.3435 5.65763 13.2979 47.0866 6.67955 -4.17424 2.46521 -6.40151 16.2781 3.58145 0.174199 5.57311 -4.31602 7.99456 12.3209 -3.02214 29.5918 -16.3076 17.6855 -24.1183 3.81036 0.577048 -1.90753 -2.02238 -4.56546 -16.2195 -7.74621 2.28083 12.1104 -8.0098 -16.3399 7.26317 1.04306 4.35806 -16.4721 -3.83199 
-7.37755 95.1516 134.029 3.81483 -10.3802 -0.839853 0 0 0 -2.17309 12.0308 0.953552 -1.29037 1.40545 1.06124 9.19605 25.3159 -2.67498 -3.80376 3.78544 2.91483 -28.7957 3.75973 -7.24866 -33.7121 21.6564 -18.5018 -4.78195 -13.9662 -4.18975 -9.53264 0.316338 -3.78998 26.9734 5.70707 13.6217 46.7987 7.5214 -3.20679 2.78757 -6.85478 15.1558 3.37828 0.167879 5.66269 -4.94607 6.99844 10.2053 -3.26899 27.9102 -13.5413 15.4649 -21.7636 2.98987 0.0599776 -1.61133 0.195697 -4.79565 -17.0147 -9.38328 1.33532 17.942 -4.7401 -18.2995 6.41326 1.03457 4.45381 -16.8602 -3.74195 
-6.88382 95.8812 131.429 3.05645 -10.5128 -2.15008 0 0 0 0.282309 11.8427 1.2267 -2.85627 2.2481 1.80627 7.75546 26.3112 -2.0844 -3.33746 3.6218 2.72497 -29.1972 3.70105 -6.96529 -35.0628 22.8574 -15.0123 -5.09707 -16.3853 -6.11137 -9.36881 0.271611 -3.31932 26.1891 5.65345 13.858 46.7242 8.53176 -2.36998 2.57153 -5.61969 14.5078 3.09766 0.123196 4.57043 -5.28441 6.04095 7.91213 -3.3804 25.6791 -9.71893 13.6841 -19.609 2.37554 0.239135 -0.580297 -0.870982 -5.07118 -17.7772 -10.2844 -0.00380846 25.7778 -0.655142 -19.0148 4.78009 0.799058 4.42495 -16.8195 -4.50535 
-6.51716 96.4079 129.036 2.19172 -10.5655 -3.51639 0 0 0 2.43474 11.9017 1.47705 -4.0985 2.16066 2.39125 5.90562 28.0782 -0.977278 -2.58785 2.92007 2.80082 -29.5822 3.49942 -6.29157 -37.1575 23.6145 -10.7813 -5.25708 -16.9025 -7.88354 -9.91041 0.263754 -3.02359 25.3643 5.82444 14.8136 46.9284 8.52665 -2.56741 2.33625 -4.59593 13.9468 3.41772 0.140001 4.68027 -5.43237 4.93583 6.39633 -2.78224 24.216 -6.88829 11.7367 -17.9239 1.85734 0.40126 1.37137 -1.95072 -5.05899 -17.7497 -7.7972 -0.00742613 34.2469 -0.0720744 -19.6654 2.78056 0.487846 4.49669 -17.3239 -5.90876 
-6.09912 96.7751 126.867 2.08029 -10.2514 -5.09899 0 0 0 4.10671 10.9085 2.07288 -5.89219 2.92594 3.38892 4.84106 28.9221 -0.492244 -2.09569 2.56553 2.64303 -29.5925 3.38564 -5.97221 -39.6895 23.3863 -6.41513 -4.85612 -15.5313 -9.16189 -10.7363 0.33992 -3.6189 25.0478 5.88862 15.1901 47.0683 8.97159 -2.81995 2.87752 -6.29648 13.9452 3.55401 0.16732 5.39158 -6.29037 3.86034 5.35859 -2.16406 22.1091 -4.4527 9.98013 -16.3187 1.43392 0.427052 1.85689 -2.14937 -5.91449 -17.463 -5.91515 -0.0262792 43.0803 0.312616 -18.8371 0.123696 0.0182476 4.45354 -17.0265 -5.08297 
-5.98499 96.9723 124.64 2.19797 -10.0949 -5.76495 0 0 0 4.62211 10.036 2.56279 -6.75693 3.8367 3.98487 4.33288 29.504 -0.135756 -2.13884 2.02791 2.76567 -29.5926 3.27572 -5.66579 -42.0442 24.0682 -2.09053 -5.31328 -17.8045 -11.6193 -10.283 0.224961 -2.49587 25.0691 6.02673 15.6082 47.0424 9.16898 -3.39763 2.48621 -5.5172 15.2376 3.44266 0.147936 4.91797 -6.46567 2.43264 5.09076 -2.08021 21.2666 -3.60554 8.77362 -14.6065 1.12663 0.424443 1.04855 -1.98573 -6.80898 -15.7888 -4.94866 0.0174072 50.5803 -0.0710311 -19.6008 -0.922001 -0.160994 4.7336 -18.1803 -4.78322 
-5.88901 97.0502 122.549 2.55665 -9.86311 -6.82067 0 0 0 5.09453 9.14574 3.2578 -8.03447 4.48878 4.87063 4.00292 30.0713 0.0962245 -1.85876 1.51563 2.7748 -29.6857 3.17683 -5.36737 -44.4467 23.1829 2.59303 -5.15956 -17.4306 -14.0638 -10.1888 0.124419 -1.39054 25.3341 6.17443 15.915 46.8316 9.25773 -3.91944 2.08428 -4.46956 15.8588 3.13102 0.133827 4.90701 -6.70561 0.932211 5.02618 -2.42147 20.5778 -2.98706 7.85514 -12.7926 0.881267 0.291248 1.63785 -1.56901 -7.86852 -13.2494 -3.92438 -0.0075663 56.4574 0.411786 -19.7205 -2.34069 -0.402339 4.58384 -17.552 -4.96997 
-5.82091 97.0157 120.483 2.93341 -9.77335 -7.73245 0 0 0 5.61592 8.27827 4.02871 -9.21699 5.36589 5.86879 3.6163 30.2597 0.195208 -1.36987 1.3868 2.5524 -29.9011 3.08136 -5.05095 -45.905 21.7326 5.019 -4.74861 -16.5943 -12.4151 -10.3969 0.218972 -2.41905 24.985 6.06828 15.7877 47.4142 9.92255 -4.16339 2.57832 -6.0155 16.3276 2.64145 0.119654 5.18331 -6.88739 -0.515715 4.94387 -2.7676 20.0974 -1.928 6.51826 -11.7313 0.670034 0.35536 3.04203 -2.10561 -8.8664 -9.84696 -2.86566 0.00426401 60.4326 0.866556 -18.2598 -3.17767 -0.510188 4.43501 -16.779 -3.89478 
